<svg xmlns="http://www.w3.org/2000/svg" xmlns:xlink="http://www.w3.org/1999/xlink" version="1.1" width="256" height="256" viewBox="0 0 256 256" xml:space="preserve">

<defs>
</defs>
<g style="stroke: none; stroke-width: 0; stroke-dasharray: none; stroke-linecap: butt; stroke-linejoin: miter; stroke-miterlimit: 10; fill: none; fill-rule: nonzero; opacity: 1;" transform="translate(1.4065934065934016 1.4065934065934016) scale(2.81 2.81)" >
	<path d="M 78.116 54.894 H 23.524 c -0.552 0 -1 -0.447 -1 -1 s 0.448 -1 1 -1 h 54.592 c 1.824 0 3.459 -1.222 3.977 -2.971 l 5.809 -19.65 c 0.21 -0.709 0.076 -1.456 -0.366 -2.048 c -0.442 -0.593 -1.121 -0.933 -1.861 -0.933 H 71.782 c -0.553 0 -1 -0.448 -1 -1 c 0 -0.552 0.447 -1 1 -1 h 13.891 c 1.377 0 2.64 0.633 3.464 1.736 c 0.823 1.103 1.072 2.493 0.682 3.812 L 84.011 50.49 C 83.244 53.084 80.82 54.894 78.116 54.894 z" style="stroke: none; stroke-width: 1; stroke-dasharray: none; stroke-linecap: butt; stroke-linejoin: miter; stroke-miterlimit: 10; fill: rgb(0,0,0); fill-rule: nonzero; opacity: 1;" transform=" matrix(1 0 0 1 0 0) " stroke-linecap="round" />
	<path d="M 31.735 27.293 H 16.356 c -0.552 0 -1 -0.448 -1 -1 c 0 -0.552 0.448 -1 1 -1 h 15.379 c 0.552 0 1 0.448 1 1 C 32.735 26.845 32.288 27.293 31.735 27.293 z" style="stroke: none; stroke-width: 1; stroke-dasharray: none; stroke-linecap: butt; stroke-linejoin: miter; stroke-miterlimit: 10; fill: rgb(0,0,0); fill-rule: nonzero; opacity: 1;" transform=" matrix(1 0 0 1 0 0) " stroke-linecap="round" />
	<path d="M 78.642 66.127 H 26.441 c -0.456 0 -0.854 -0.308 -0.968 -0.749 L 14.307 22.383 c -0.476 -1.831 -2.129 -3.11 -4.021 -3.11 H 1 c -0.552 0 -1 -0.448 -1 -1 c 0 -0.552 0.448 -1 1 -1 h 9.287 c 2.803 0 5.252 1.895 5.956 4.607 l 10.971 42.247 h 51.428 c 0.553 0 1 0.447 1 1 S 79.194 66.127 78.642 66.127 z" style="stroke: none; stroke-width: 1; stroke-dasharray: none; stroke-linecap: butt; stroke-linejoin: miter; stroke-miterlimit: 10; fill: rgb(0,0,0); fill-rule: nonzero; opacity: 1;" transform=" matrix(1 0 0 1 0 0) " stroke-linecap="round" />
	<path d="M 35.47 83.934 c -3.762 0 -6.822 -3.061 -6.822 -6.822 s 3.061 -6.822 6.822 -6.822 c 3.762 0 6.823 3.061 6.823 6.822 S 39.232 83.934 35.47 83.934 z M 35.47 72.29 c -2.659 0 -4.822 2.163 -4.822 4.822 c 0 2.659 2.163 4.822 4.822 4.822 s 4.823 -2.163 4.823 -4.822 C 40.293 74.453 38.129 72.29 35.47 72.29 z" style="stroke: none; stroke-width: 1; stroke-dasharray: none; stroke-linecap: butt; stroke-linejoin: miter; stroke-miterlimit: 10; fill: rgb(0,0,0); fill-rule: nonzero; opacity: 1;" transform=" matrix(1 0 0 1 0 0) " stroke-linecap="round" />
	<path d="M 68.27 83.934 c -3.762 0 -6.822 -3.061 -6.822 -6.822 s 3.061 -6.822 6.822 -6.822 c 3.763 0 6.823 3.061 6.823 6.822 S 72.032 83.934 68.27 83.934 z M 68.27 72.29 c -2.659 0 -4.822 2.163 -4.822 4.822 c 0 2.659 2.163 4.822 4.822 4.822 c 2.659 0 4.823 -2.163 4.823 -4.822 C 73.093 74.453 70.929 72.29 68.27 72.29 z" style="stroke: none; stroke-width: 1; stroke-dasharray: none; stroke-linecap: butt; stroke-linejoin: miter; stroke-miterlimit: 10; fill: rgb(0,0,0); fill-rule: nonzero; opacity: 1;" transform=" matrix(1 0 0 1 0 0) " stroke-linecap="round" />
	<path d="M 52.063 38.446 l -0.487 -0.271 c -3.791 -2.115 -9.698 -7.086 -12.154 -10.229 c -5.174 -6.624 -6.25 -14.46 -2.557 -18.632 c 1.767 -1.996 4.247 -3.146 6.985 -3.241 c 2.893 -0.105 5.773 1.001 8.213 3.115 c 2.44 -2.116 5.34 -3.218 8.212 -3.115 c 2.738 0.095 5.219 1.246 6.985 3.241 l 0 0 c 3.692 4.171 2.617 12.007 -2.557 18.632 c -2.457 3.144 -8.363 8.115 -12.153 10.229 L 52.063 38.446 z M 44.21 8.066 c -0.097 0 -0.194 0.002 -0.292 0.005 c -2.184 0.076 -4.157 0.988 -5.556 2.568 c -3.004 3.395 -1.872 10.306 2.636 16.075 c 2.184 2.795 7.503 7.311 11.065 9.432 c 3.561 -2.121 8.88 -6.637 11.064 -9.432 c 4.581 -5.864 5.689 -12.625 2.635 -16.075 l 0 0 c -1.398 -1.58 -3.372 -2.492 -5.556 -2.568 c -2.646 -0.091 -5.26 1.043 -7.442 3.19 l -0.701 0.69 l -0.701 -0.69 C 49.259 9.194 46.73 8.066 44.21 8.066 z" style="stroke: none; stroke-width: 1; stroke-dasharray: none; stroke-linecap: butt; stroke-linejoin: miter; stroke-miterlimit: 10; fill: rgb(0,0,0); fill-rule: nonzero; opacity: 1;" transform=" matrix(1 0 0 1 0 0) " stroke-linecap="round" />
</g>
</svg>